<?xml version="1.0" encoding="UTF-8" standalone="no"?>
<svg
   xmlns:dc="http://purl.org/dc/elements/1.1/"
   xmlns:cc="http://creativecommons.org/ns#"
   xmlns:rdf="http://www.w3.org/1999/02/22-rdf-syntax-ns#"
   xmlns:svg="http://www.w3.org/2000/svg"
   xmlns="http://www.w3.org/2000/svg"
   xmlns:sodipodi="http://sodipodi.sourceforge.net/DTD/sodipodi-0.dtd"
   xmlns:inkscape="http://www.inkscape.org/namespaces/inkscape"
   version="1.1"
   width="949"
   height="256"
   viewbox="0 0 949 256"
   id="svg3863"
   sodipodi:docname="logo.svg"
   inkscape:version="0.92.4 (5da689c313, 2019-01-14)">
  <metadata
     id="metadata3869">
    <rdf:RDF>
      <cc:Work
         rdf:about="">
        <dc:format>image/svg+xml</dc:format>
        <dc:type
           rdf:resource="http://purl.org/dc/dcmitype/StillImage" />
        <dc:title></dc:title>
      </cc:Work>
    </rdf:RDF>
  </metadata>
  <defs
     id="defs3867" />
  <sodipodi:namedview
     pagecolor="#ffffff"
     bordercolor="#666666"
     borderopacity="1"
     objecttolerance="10"
     gridtolerance="10"
     guidetolerance="10"
     inkscape:pageopacity="0"
     inkscape:pageshadow="2"
     inkscape:window-width="1504"
     inkscape:window-height="673"
     id="namedview3865"
     showgrid="false"
     inkscape:zoom="0.92729189"
     inkscape:cx="522.25057"
     inkscape:cy="148.232"
     inkscape:window-x="211"
     inkscape:window-y="520"
     inkscape:window-maximized="0"
     inkscape:current-layer="layer1" />
  <flowRoot
     xml:space="preserve"
     id="flowRoot3881"
     style="font-style:normal;font-weight:normal;font-size:40px;line-height:1.25;font-family:sans-serif;letter-spacing:0px;word-spacing:0px;fill:#000000;fill-opacity:1;stroke:none"><flowRegion
       id="flowRegion3883"><rect
         id="rect3885"
         width="49.606819"
         height="44.214771"
         x="805.57159"
         y="15.514772" /></flowRegion><flowPara
       id="flowPara3887">as</flowPara></flowRoot>  <flowRoot
     xml:space="preserve"
     id="flowRoot3889"
     style="fill:black;fill-opacity:1;stroke:none;font-family:sans-serif;font-style:normal;font-weight:normal;font-size:192px;line-height:1.25;letter-spacing:0px;word-spacing:0px;"><flowRegion
       id="flowRegion3891"
       style="font-size:192px;"><rect
         id="rect3893"
         width="949"
         height="254.50455"
         x="1.0784091"
         y="1.4954544"
         style="font-size:192px;" /></flowRegion><flowPara
       id="flowPara3895" /></flowRoot>  <g
     inkscape:groupmode="layer"
     id="layer1"
     inkscape:label="Layer 1">
    <text
       xml:space="preserve"
       style="font-style:normal;font-variant:normal;font-weight:normal;font-stretch:normal;font-size:235.99794006px;line-height:1.25;font-family:Jokerman;-inkscape-font-specification:Jokerman;letter-spacing:0px;word-spacing:0px;fill:#000000;fill-opacity:1;stroke:none;stroke-width:1.22915602"
       x="-8.0667658"
       y="209.2392"
       id="text3916"
       transform="scale(0.8670321,1.1533598)"><tspan
         sodipodi:role="line"
         id="tspan3914"
         x="-8.0667658"
         y="209.2392"
         style="stroke-width:1.22915602">SnowRain</tspan></text>
    <path
       style="stroke-width:1.07840908;fill:#ffffff"
       d="M 38.665864,249.59409 C 26.560562,248.25483 14.712815,241.69294 8.7487197,233.02443 -0.87803873,219.03242 0.27559195,192.82504 11.031942,181.15578 c 5.149342,-5.58638 9.885203,-7.37532 17.789444,-6.71984 12.047012,0.99904 19.78163,10.3768 20.513355,24.87123 0.714822,14.1596 -3.986859,22.00141 -13.858407,23.11407 -4.023811,0.45355 -5.28241,0.0932 -8.174591,-2.34041 -5.151256,-4.33449 -6.051584,-12.97358 -1.795591,-17.22958 0.931163,-0.93116 2.403361,-1.69302 3.27155,-1.69302 1.267766,0 1.340701,0.44438 0.370478,2.25726 -3.201462,5.98199 3.695835,11.46248 7.896713,6.27461 2.934847,-3.62438 2.16817,-12.85106 -1.381834,-16.62987 -5.489705,-5.84352 -16.128128,-5.56313 -20.473671,0.53962 -3.284599,4.6128 -4.799963,14.61222 -3.305414,21.81143 3.915958,18.86307 28.713688,25.51027 41.880214,11.22628 7.763139,-8.42202 10.990949,-17.41485 11.012448,-30.68123 0.01568,-9.67659 -3.397411,-20.59027 -9.736435,-31.13318 C 52.612753,160.78588 43.094398,148.01962 33.8883,136.45368 14.887581,112.58242 10.048871,105.01987 5.9435967,92.778114 -3.7836319,63.771934 6.8589123,28.706917 28.946354,16.98871 c 10.42055,-5.528488 17.3286,-7.0015473 30.313077,-6.463903 13.674641,0.566223 21.282118,3.110423 29.625622,9.907823 11.959097,9.742996 17.204927,21.287382 17.138007,37.715217 -0.065,15.957539 -3.7919,27.066743 -11.919719,35.530451 -8.1631,8.500452 -19.775387,11.330162 -31.959839,7.788042 C 53.801099,99.041143 45.488707,90.983283 42.715161,82.632916 40.25306,75.220224 40.217202,61.845445 42.643854,56.036294 46.399275,47.046217 54.631271,41.618567 64.573387,41.577366 c 6.928302,-0.02871 11.161377,1.992009 14.014921,6.690228 4.633743,7.629224 4.265769,14.785149 -1.072957,20.865624 -2.52065,2.870861 -4.075886,3.694328 -6.977277,3.694328 -4.03664,0 -7.905457,-1.601842 -7.905457,-3.27317 0,-0.572257 1.120459,-1.040467 2.489907,-1.040467 4.189948,0 6.353048,-2.393833 6.353048,-7.030712 0,-4.473892 -2.959603,-8.067015 -6.644684,-8.067015 -7.958567,0 -12.982362,6.037224 -12.982362,15.601242 0,10.748854 4.659975,16.787394 14.198555,18.398926 7.35891,1.243279 12.604389,-0.355444 17.618837,-5.369893 C 95.698316,70.01406 95.191799,45.742169 82.667387,34.197568 75.873488,27.935171 70.019519,26.096233 58.62256,26.64424 50.777025,27.021481 48.184486,27.627028 43.509494,30.174248 32.538465,36.15193 25.966708,49.069747 25.966708,64.657339 c 0,17.983078 4.864321,25.438156 33.304042,51.041911 11.691067,10.52525 22.845554,21.22476 24.787752,23.77669 5.572141,7.32146 11.744211,21.45906 13.715308,31.41596 2.58285,13.04715 1.675224,32.25982 -2.029252,42.95513 -1.492754,4.30977 -4.275764,10.2696 -6.184464,13.24406 -7.018417,10.93724 -21.840837,20.86274 -33.027041,22.11578 -2.873053,0.32183 -6.436941,0.72111 -7.919754,0.8873 -1.482812,0.16619 -5.959158,-0.0589 -9.947435,-0.50008 z"
       id="path17"
       inkscape:connector-curvature="0" />
    <path
       style="fill:#ffffff;stroke-width:1.07840908"
       d="m 134.41693,241.87607 c -1.52253,-9.38622 -10.22589,-116.71313 -9.51468,-117.33173 0.44952,-0.39098 3.97165,-1.58018 7.82696,-2.64266 3.85531,-1.06249 10.96304,-3.02953 15.79495,-4.3712 l 8.78529,-2.4394 -0.40309,6.09806 c -0.95505,14.44837 -1.29728,31.44003 -0.63308,31.43237 0.39607,-0.005 1.79037,-1.8829 3.09844,-4.17408 3.95666,-6.93039 12.99877,-15.98497 18.89923,-18.92529 9.71733,-4.84236 20.69707,-2.78748 27.40207,5.12834 4.12982,4.8756 8.73923,15.55264 11.1562,25.84174 2.32825,9.91144 12.0495,74.28505 11.32709,75.00746 -0.63559,0.63559 -36.28782,9.00236 -36.59506,8.58803 -0.13553,-0.18278 0.10067,-17.31727 0.5249,-38.07664 0.92425,-45.22762 0.25305,-52.16282 -5.57377,-57.59133 -6.07568,-5.66036 -15.59513,-1.11394 -23.84181,11.38667 -8.26899,12.53444 -7.94033,10.97987 -9.31258,44.04784 -0.68918,16.6075 -1.24503,31.98087 -1.23523,34.16303 l 0.0178,3.96757 -6.20085,1.19733 c -3.41047,0.65852 -7.27008,1.4244 -8.57692,1.70198 -1.99011,0.42268 -2.46863,-0.0659 -2.94587,-3.00809 z m 78.73211,-16.24749 c 2.2158,-1.90595 3.01584,-3.75104 3.41137,-7.86746 0.44964,-4.6794 0.13918,-5.82627 -2.39117,-8.83342 -7.98461,-9.48917 -18.37906,1.5057 -13.51595,14.29665 1.91009,5.0239 8.07191,6.20946 12.49575,2.40423 z m -3.05738,-33.66783 c 2.91611,-2.04252 4.0593,-7.57196 2.4439,-11.82077 -1.45741,-3.83327 -2.82495,-4.82512 -6.68299,-4.84706 -3.85808,-0.0219 -6.262,3.58276 -6.262,9.38992 0,7.48666 5.1285,11.04102 10.50109,7.27791 z"
       id="path19"
       inkscape:connector-curvature="0" />
    <path
       style="fill:#ffffff;stroke-width:1.07840908"
       d=""
       id="path21"
       inkscape:connector-curvature="0" />
    <path
       style="fill:#ffffff;stroke-width:1.07840908"
       d="m 310.19061,259.00683 c -0.31542,-2.45705 -0.7013,-5.68056 -0.85751,-7.16338 -0.277,-2.62948 -0.50209,-2.69703 -9.12093,-2.7372 -8.00836,-0.0373 -9.55706,-0.41067 -16.51762,-3.9819 l -7.68071,-3.94072 -3.53476,7.3758 -3.53476,7.37581 -3.36877,-2.63646 -3.36877,-2.63645 3.93399,-7.95045 3.93398,-7.95044 -2.9493,-3.86673 c -1.62211,-2.1267 -4.42412,-7.01836 -6.22669,-10.87035 -1.80256,-3.852 -3.65525,-7.00363 -4.11707,-7.00363 -0.46182,0 -3.12547,1.01111 -5.91923,2.24692 -2.79375,1.23581 -5.23751,2.08506 -5.43058,1.88722 -0.19306,-0.19784 -0.51669,-2.51842 -0.71918,-5.15684 l -0.36815,-4.79714 4.8604,-1.39239 4.8604,-1.39239 -0.13176,-17.39657 -0.13177,-17.39657 -5.01958,-2.17284 c -4.91137,-2.126 -5.00467,-2.25686 -4.32823,-6.07016 1.01906,-5.74471 1.9196,-6.11073 7.29045,-2.96321 5.52286,3.23661 6.0802,3.37062 6.0802,1.4619 0,-2.85969 7.51809,-16.91424 11.26823,-21.0652 l 3.90509,-4.32247 -3.45346,-7.00325 -3.45345,-7.00324 3.14606,-2.76542 c 1.73033,-1.52098 3.40203,-2.78076 3.71489,-2.7995 0.31286,-0.0187 1.92446,3.07766 3.58132,6.8809 l 3.0125,6.91497 6.12435,-2.82416 c 8.08226,-3.72703 18.76177,-3.90024 26.48161,-0.4295 5.73574,2.57872 7.14218,2.85899 7.14218,1.4233 0,-0.51773 0.99252,-3.18509 2.20561,-5.92747 l 2.2056,-4.98614 3.2474,2.4009 c 3.44147,2.5444 3.44363,2.6177 0.31725,10.77882 l -1.95342,5.09922 2.84763,2.98885 c 4.21531,4.42434 10.33411,15.08293 12.37439,21.55543 l 1.79162,5.68369 5.72017,-3.22826 c 3.14609,-1.77555 5.94817,-3.22827 6.22684,-3.22827 0.27868,0 0.81369,1.81982 1.18892,4.04404 0.37522,2.22422 0.89494,4.82946 1.15492,5.78942 0.35124,1.29688 -1.12783,2.34377 -5.7558,4.074 l -6.22852,2.32861 v 10.48452 c 0,5.76649 -0.34952,12.75198 -0.77671,15.52331 l -0.7767,5.03878 4.82074,2.82514 c 2.6514,1.55383 4.82074,2.98564 4.82074,3.18181 0,0.19616 -1.01594,2.65335 -2.25764,5.46042 l -2.25763,5.10375 -3.65746,-3.54494 c -2.0116,-1.94973 -3.84899,-3.33548 -4.08308,-3.07946 -0.2341,0.25602 -1.75702,3.13455 -3.38427,6.39674 -4.54217,9.10581 -9.68054,15.52964 -15.62825,19.53799 -4.18124,2.81787 -5.29646,4.14877 -4.90175,5.84968 0.28103,1.21103 0.82497,4.8736 1.20876,8.13905 l 0.6978,5.93717 -3.84852,1.18115 -3.84851,1.18114 z m -7.398,-32.07037 c 5.35159,-2.59066 9.03434,-8.05596 12.49139,-18.53758 3.33038,-10.09759 3.32885,-33.92016 -0.003,-44.51052 -5.75314,-18.28719 -18.23849,-25.42959 -30.39254,-17.38642 -8.49194,5.6197 -13.18976,19.90595 -13.14071,39.96139 0.0426,17.43452 2.90322,28.53141 9.3153,36.13642 5.6805,6.7373 13.53308,8.3045 21.72944,4.33671 z"
       id="path23"
       inkscape:connector-curvature="0" />
    <path
       style="fill:#ffffff;stroke-width:1.07840908"
       d="m 389.89747,247.86866 c -0.38238,-2.26229 -0.91361,-4.91655 -1.18051,-5.89832 -0.34469,-1.26787 1.2624,-2.78497 5.54689,-5.2363 5.74162,-3.28503 5.9978,-3.61459 5.31867,-6.84223 -1.10306,-5.24245 -2.07905,-5.54407 -7.55512,-2.33488 -5.19371,3.04371 -6.86651,2.65967 -6.94868,-1.59529 -0.0172,-0.88969 -0.29835,-2.61199 -0.62482,-3.82733 -0.48917,-1.82102 0.37426,-2.66303 4.90855,-4.78677 5.21743,-2.44372 5.46623,-2.74788 4.80833,-5.87836 -1.03979,-4.9476 -1.94278,-5.30996 -6.91322,-2.77423 -2.50055,1.27568 -4.71547,2.1504 -4.92206,1.94381 -0.20658,-0.20658 -0.84225,-2.45249 -1.4126,-4.99092 l -1.03699,-4.61531 4.82538,-2.34435 c 4.65206,-2.26014 4.79993,-2.4806 4.11694,-6.138 -0.38963,-2.08651 -0.90284,-3.99091 -1.14046,-4.232 -0.23761,-0.24109 -2.38306,0.44145 -4.76765,1.51675 -2.3846,1.0753 -4.48321,1.75784 -4.66359,1.51675 -1.26891,-1.69597 -13.49525,-64.13075 -12.71187,-64.91414 0.53312,-0.53311 4.04153,-2.81711 7.79648,-5.07555 l 6.82717,-4.10626 11.9824,38.98563 c 6.59031,21.44209 13.07783,42.60592 14.41669,47.03074 1.61511,5.33777 2.7106,7.51522 3.25533,6.47046 0.45156,-0.86607 5.86605,-20.10518 12.03221,-42.75358 l 11.2112,-41.17891 13.16185,-4.75452 13.16185,-4.75451 0.55781,2.79706 c 0.30679,1.53838 3.5007,23.42163 7.09758,48.62945 3.59688,25.20781 6.90826,46.74266 7.35864,47.85522 0.5504,1.35966 5.0154,-14.19667 13.61918,-47.45 7.04018,-27.21006 12.92291,-49.63523 13.07274,-49.83372 0.58256,-0.77175 13.36538,6.89994 13.37743,8.02856 0.0167,1.56517 -35.29242,118.04417 -35.99728,118.74903 -1.28716,1.28717 -14.1433,3.31372 -14.75392,2.32571 -0.35528,-0.57486 -6.39551,-20.55668 -13.42273,-44.40404 -7.02722,-23.84736 -12.9302,-43.56103 -13.11774,-43.80817 -0.18754,-0.24714 -0.55503,-0.23529 -0.81665,0.0263 -0.26161,0.26162 -4.45569,17.22556 -9.32016,37.69765 l -8.8445,37.222 -12.92451,8.58407 c -7.10848,4.72124 -13.32018,8.73656 -13.80377,8.92292 -0.4836,0.18637 -1.19212,-1.51213 -1.57449,-3.77444 z"
       id="path25"
       inkscape:connector-curvature="0" />
    <path
       style="fill:#ffffff;stroke-width:1.07840908"
       d="m 432.00248,269.99534 c -6.00166,-4.7209 -7.69963,-14.80041 -3.78566,-22.47243 2.50683,-4.91379 4.89701,-6.46355 9.96871,-6.46355 2.57,0 4.47717,0.87382 6.47274,2.96563 5.44579,5.70843 6.50574,12.75777 3.05941,20.34688 -3.56986,7.8611 -9.96244,10.1486 -15.7152,5.62347 z"
       id="path27"
       inkscape:connector-curvature="0" />
    <path
       style="fill:#ffffff;stroke-width:1.07840908"
       d="m 688.15874,251.74385 c -12.53439,-2.45706 -23.05431,-11.22188 -26.73994,-22.27876 l -2.01404,-6.04214 -2.53442,4.23497 c -5.76164,9.62762 -11.08269,13.40144 -18.89589,13.40144 -9.04289,0 -18.19608,-6.74207 -27.1613,-20.00652 -2.3845,-3.52798 -12.22005,-20.12378 -21.85677,-36.87956 -9.63673,-16.75578 -18.08144,-30.46465 -18.76601,-30.46418 -0.68458,4.9e-4 -3.67111,0.92107 -6.63673,2.04573 l -5.39205,2.04485 -1.3714,36.5074 c -0.75427,20.07906 -1.62845,38.9752 -1.94262,41.9914 l -0.57122,5.48401 -8.22316,1.7845 c -4.52274,0.98147 -8.38297,1.62467 -8.57831,1.42934 -0.36474,-0.36475 -6.80029,-215.860181 -6.80828,-227.976455 l -0.004,-6.740056 h 4.17439 4.17438 l 0.74461,8.535975 0.7446,8.535975 9.1485,0.762065 c 5.03167,0.419137 9.39255,0.518019 9.69083,0.219739 0.29828,-0.298279 0.8832,-3.633151 1.29984,-7.410825 l 0.75751,-6.868498 4.73718,-0.33913 4.73718,-0.339131 -0.73242,9.026684 -0.73242,9.026686 6.24013,1.96566 c 3.43207,1.081114 6.79606,2.178353 7.47554,2.43831 0.74099,0.283491 2.38962,-2.993125 4.11943,-8.187282 l 2.88403,-8.659929 3.68568,2.386907 c 2.02712,1.312799 3.69168,2.739792 3.69902,3.171095 0.007,0.431303 -1.19986,4.007391 -2.68267,7.94686 -1.48281,3.939471 -2.69602,7.28305 -2.69602,7.430177 0,0.147128 1.90703,1.529519 4.23785,3.071981 2.33082,1.542462 5.76809,5.028609 7.63839,7.746992 l 3.40054,4.942516 4.85863,-4.478527 4.85863,-4.478527 2.6007,3.827286 c 1.43039,2.105007 2.61417,4.216995 2.63063,4.693306 0.0164,0.476312 -2.6602,3.292441 -5.94812,6.258066 -5.84768,5.274479 -5.95414,5.474187 -4.88275,9.159358 0.6024,2.072022 1.09527,7.794406 1.09527,12.71641 v 8.949097 l 7.00966,3.145021 c 3.85531,1.729762 7.00966,3.321512 7.00966,3.537222 0,0.215711 -0.76576,2.639582 -1.70168,5.386372 l -1.70169,4.99417 -6.01295,-2.65921 c -3.30712,-1.46257 -6.11516,-2.53161 -6.24008,-2.37565 -0.12493,0.15597 -1.27951,3.48832 -2.56573,7.40524 -1.28623,3.91692 -3.03513,8.04183 -3.88644,9.16647 -2.3706,3.13176 -1.98099,4.54529 2.83986,10.30326 l 4.45629,5.32256 -2.02987,3.81328 c -1.11643,2.0973 -2.44027,4.07308 -2.94187,4.39062 -0.5016,0.31752 -3.2235,-1.69941 -6.04867,-4.48211 l -5.13668,-5.05943 -2.85449,2.50559 -2.8545,2.50559 16.99124,36.12671 c 16.10851,34.24984 17.33189,36.47254 23.54823,42.78355 9.85035,10.00036 16.82476,10.3591 24.6083,1.26578 2.93172,-3.42506 3.70293,-5.39786 4.26296,-10.90492 1.91633,-18.84408 18.77796,-36.6346 45.70632,-48.22423 6.57944,-2.83171 7.27309,-3.42401 7.07194,-6.03861 -0.3112,-4.04465 -5.06069,-10.8436 -8.99683,-12.87907 -11.62569,-6.01187 -27.52339,-1.02513 -36.57732,11.47347 l -2.95129,4.07412 -2.25021,-3.04356 -2.25019,-3.04356 3.92823,-6.64032 c 10.0738,-17.02878 26.32582,-27.05674 43.85009,-27.05674 10.53899,0 16.24849,2.50439 24.38272,10.69512 8.18154,8.23837 13.34074,17.49252 18.08601,32.44124 6.43199,20.26227 9.07088,38.43309 8.61375,59.3125 l -0.31875,14.55852 -6.96358,3.68177 c -20.44614,10.81023 -46.20495,16.13702 -62.54495,12.93397 z m 25.9126,-11.90924 c 6.99062,-2.35557 6.75437,-1.31225 6.06871,-26.80161 -0.54425,-20.23218 -2.30808,-41.75741 -3.5256,-43.02557 -0.66203,-0.68955 -24.50097,11.42996 -27.74554,14.10561 l -3.0154,2.48666 5.16362,27.89964 5.16361,27.89963 7.0979,-0.65967 c 3.90384,-0.36283 8.76055,-1.21994 10.7927,-1.90469 z m 30.39474,-12.55848 c 5.25933,-4.61902 4.70543,-16.18835 -0.98952,-20.668 -3.25117,-2.55738 -4.58634,-2.70312 -8.48601,-0.92631 -5.96654,2.71854 -8.03461,14.04143 -3.59535,19.68503 3.94948,5.02095 8.73234,5.71959 13.07088,1.90928 z m -2.51401,-38.66504 c 3.26204,-4.147 3.05931,-11.53009 -0.41192,-15.00131 -1.45585,-1.45585 -3.66168,-2.64701 -4.90185,-2.64701 -1.24017,0 -3.44601,1.19116 -4.90186,2.64701 -3.509,3.50899 -3.78652,12.38962 -0.49019,15.68595 3.10314,3.10314 7.97123,2.79183 10.70582,-0.68464 z M 569.6096,138.94469 c 5.26469,-2.63087 10.37941,-6.37681 15.09276,-11.0537 l 7.1294,-7.07424 -6.09367,-36.126704 -6.09368,-36.126705 -7.27523,-2.567502 c -4.00138,-1.412126 -7.60428,-2.238457 -8.00645,-1.836291 -0.40216,0.402164 -1.55519,17.814557 -2.56229,38.694205 -1.0071,20.879647 -2.13183,42.937157 -2.4994,49.016687 -0.54801,9.064 -0.39709,11.0537 0.83845,11.0537 0.82871,0 5.09026,-1.79076 9.47011,-3.97945 z"
       id="path29"
       inkscape:connector-curvature="0" />
    <path
       style="fill:#ffffff;stroke-width:1.07840908"
       d="m 794.60278,252.52708 c -18.88141,-3.27524 -19.1417,-3.35748 -19.13766,-6.04605 0.004,-2.85215 13.52323,-116.6026 14.5824,-122.69866 l 0.60896,-3.50482 h 8.51233 8.51233 l 0.57005,4.58323 c 0.6594,5.3017 7.15022,121.20002 7.12669,127.25228 -0.009,2.22421 -0.37968,3.97437 -0.82453,3.88922 -0.44484,-0.0851 -9.4226,-1.64898 -19.95057,-3.4752 z m 4.64298,-16.89173 c 7.57886,-4.05609 6.75575,-20.77961 -1.15855,-23.53855 -3.46058,-1.20637 -8.98966,0.84197 -10.1754,3.76963 -3.36114,8.29885 -2.56019,14.85802 2.27917,18.66465 3.11107,2.44718 5.90815,2.7883 9.05478,1.10427 z m 3.65355,-40.10912 c 0.92331,-1.31823 1.67876,-4.60724 1.67876,-7.30891 0,-6.42248 -2.30814,-9.71072 -6.80121,-9.68917 -4.0474,0.0194 -5.37654,0.76465 -7.05667,3.95662 -1.93679,3.67961 -1.48099,9.44876 0.99524,12.59677 2.92722,3.72136 8.72727,3.95198 11.18388,0.44469 z"
       id="path31"
       inkscape:connector-curvature="0" />
    <path
       style="fill:#ffffff;stroke-width:1.07840908"
       d="m 796.4963,101.99041 c -0.60956,-4.432029 -1.31839,-5.718162 -4.14523,-7.521302 l -3.40993,-2.175076 -3.23523,3.819585 -3.23523,3.819586 -1.84652,-3.135838 c -1.83339,-3.113545 -1.82128,-3.160298 1.70356,-6.576707 3.36563,-3.262101 3.52405,-3.761289 3.0491,-9.608184 -0.45055,-5.546428 -0.92012,-6.528203 -4.66436,-9.75205 -3.6727,-3.162247 -4.01964,-3.86129 -2.94372,-5.93125 0.67081,-1.290583 1.40384,-2.555986 1.62895,-2.812007 0.2251,-0.256021 2.0253,1.100819 4.00044,3.015199 l 3.59116,3.48069 3.53955,-3.306438 c 3.52718,-3.294875 3.53696,-3.332758 2.79784,-10.833664 l -0.74171,-7.527226 h 2.76132 c 2.68663,0 2.76227,0.196894 2.79644,7.279261 l 0.0351,7.279261 3.97743,1.867971 3.97743,1.86797 3.53399,-3.425277 c 3.43603,-3.330335 3.57794,-3.367166 5.11963,-1.328766 2.14176,2.831807 2.14701,2.813409 -1.93115,6.766121 l -3.58539,3.475092 1.17475,6.495749 c 1.00373,5.550091 1.68269,6.817354 4.66379,8.704858 3.60111,2.280059 3.90379,3.03682 2.82449,7.061836 l -0.63511,2.368509 -4.13633,-2.73729 -4.13632,-2.73729 -3.82075,3.048643 c -3.71903,2.96749 -3.80298,3.199786 -3.15343,8.726454 0.65093,5.53837 0.59994,5.67781 -2.07599,5.67781 -2.47101,0 -2.81629,-0.53066 -3.4786,-5.34623 z"
       id="path33"
       inkscape:connector-curvature="0" />
    <path
       style="fill:#ffffff;stroke-width:1.07840908"
       d="m 850.94966,243.95662 c 0,-0.90593 -2.15292,-26.31395 -4.78428,-56.46226 -2.63135,-30.14831 -4.9306,-56.70831 -5.10945,-59.02222 l -0.32517,-4.20712 8.61428,-2.37251 c 4.73785,-1.30489 12.16661,-3.38751 16.50834,-4.62806 l 7.89407,-2.25555 -0.6803,19.08006 c -0.56474,15.83898 -0.44019,18.77637 0.73321,17.29223 0.77743,-0.98331 3.56092,-4.7653 6.18554,-8.40442 9.7116,-13.46543 23.0374,-19.28824 33.81573,-14.77601 4.1567,1.74015 10.62443,8.66521 13.67176,14.63848 4.21399,8.2601 7.56638,23.45081 12.47729,56.53841 2.7157,18.29725 4.78998,34.02064 4.6095,34.94088 -0.23727,1.20983 -5.10615,2.81002 -17.58268,5.77867 -9.49,2.25803 -17.66584,4.12618 -18.16852,4.15145 -0.50269,0.0252 -0.56194,-17.78825 -0.13167,-39.58559 0.87744,-44.45021 0.36917,-50.17961 -4.92087,-55.46964 -6.73319,-6.73319 -15.87096,-2.41678 -25.53857,12.06367 -6.94179,10.39764 -6.74852,9.33796 -8.39706,46.04209 -1.06891,23.7989 -1.92154,34.36055 -2.81864,34.915 -0.70739,0.43718 -3.95674,1.12855 -7.22079,1.53637 -3.26404,0.40782 -6.58647,0.99162 -7.38317,1.29734 -0.82282,0.31575 -1.44855,-0.15565 -1.44855,-1.09127 z m 76.93703,-17.0357 c 3.49711,-1.59338 5.54275,-5.6648 5.409,-10.76549 -0.19938,-7.6039 -5.1389,-11.89003 -11.7813,-10.22289 -6.31878,1.58592 -7.62398,15.48005 -1.87871,19.99929 3.17954,2.50102 4.56752,2.66741 8.25101,0.98909 z m -0.36999,-35.46837 c 1.48452,-1.48452 2.15682,-3.5947 2.15682,-6.76971 0,-5.80716 -2.40392,-9.41185 -6.262,-9.38992 -3.85804,0.0219 -5.22558,1.01379 -6.68298,4.84706 -3.37245,8.87021 4.73206,17.36867 10.78816,11.31257 z"
       id="path35"
       inkscape:connector-curvature="0" />
  </g>
</svg>
